<svg width="427" height="81" viewBox="0 0 427 81" fill="none" xmlns="http://www.w3.org/2000/svg">
<mask id="path-1-outside-1_49_5" maskUnits="userSpaceOnUse" x="0" y="0" width="427" height="81" fill="black">
<rect fill="white" width="427" height="81"/>
<path d="M18.4272 71.152V62.512H9.69124V9.424H19.3872V61.552H27.0672V44.08H35.8992V18.16H45.4992V44.08H54.3312V61.552H62.1072V9.424H71.7072V62.512H63.0672V71.152H53.3712V62.512H44.5392V45.04H36.8592V62.512H28.0272V71.152H18.4272ZM102.555 71.152V62.512H93.8187V35.536H102.555V26.8H129.627V35.536H138.459V45.04H128.667V36.4H103.515V44.08H120.987V53.776H103.515V61.552H128.667V52.72H138.459V62.416H129.627V71.152H102.555ZM172.245 71.152V62.512H163.509V9.424H173.205V26.8H199.317V35.536H208.149V62.512H199.317V71.152H172.245ZM173.205 61.552H198.357V36.4H173.205V61.552ZM233.199 71.152V9.424H260.367V18.16H269.007V26.8H277.839V53.776H269.007V62.512H260.367V71.152H233.199ZM242.895 61.552H259.407V52.816H268.047V27.76H259.407V19.12H242.895V61.552ZM311.625 71.152V62.512H302.889V35.536H311.625V26.8H338.697V35.536H347.529V45.04H337.737V36.4H312.585V44.08H330.057V53.776H312.585V61.552H337.737V52.72H347.529V62.416H338.697V71.152H311.625ZM372.579 71.152V61.552H381.315V52.816H389.955V45.04H381.315V36.4H372.579V26.8H382.275V35.536H390.915V44.08H398.787V35.536H407.427V26.8H417.219V36.4H408.387V45.04H399.747V52.816H408.387V61.552H417.219V71.152H407.427V62.512H398.787V53.776H390.915V62.512H382.275V71.152H372.579Z"/>
</mask>
<path d="M18.4272 71.152V62.512H9.69124V9.424H19.3872V61.552H27.0672V44.08H35.8992V18.16H45.4992V44.08H54.3312V61.552H62.1072V9.424H71.7072V62.512H63.0672V71.152H53.3712V62.512H44.5392V45.04H36.8592V62.512H28.0272V71.152H18.4272ZM102.555 71.152V62.512H93.8187V35.536H102.555V26.8H129.627V35.536H138.459V45.04H128.667V36.4H103.515V44.08H120.987V53.776H103.515V61.552H128.667V52.72H138.459V62.416H129.627V71.152H102.555ZM172.245 71.152V62.512H163.509V9.424H173.205V26.8H199.317V35.536H208.149V62.512H199.317V71.152H172.245ZM173.205 61.552H198.357V36.4H173.205V61.552ZM233.199 71.152V9.424H260.367V18.16H269.007V26.8H277.839V53.776H269.007V62.512H260.367V71.152H233.199ZM242.895 61.552H259.407V52.816H268.047V27.76H259.407V19.12H242.895V61.552ZM311.625 71.152V62.512H302.889V35.536H311.625V26.8H338.697V35.536H347.529V45.04H337.737V36.4H312.585V44.08H330.057V53.776H312.585V61.552H337.737V52.72H347.529V62.416H338.697V71.152H311.625ZM372.579 71.152V61.552H381.315V52.816H389.955V45.04H381.315V36.4H372.579V26.8H382.275V35.536H390.915V44.08H398.787V35.536H407.427V26.8H417.219V36.4H408.387V45.04H399.747V52.816H408.387V61.552H417.219V71.152H407.427V62.512H398.787V53.776H390.915V62.512H382.275V71.152H372.579Z" fill="#FFE100"/>
<path d="M18.4272 71.152H9.42725V80.152H18.4272V71.152ZM18.4272 62.512H27.4272V53.512H18.4272V62.512ZM9.69124 62.512H0.691238V71.512H9.69124V62.512ZM9.69124 9.424V0.423996H0.691238V9.424H9.69124ZM19.3872 9.424H28.3872V0.423996H19.3872V9.424ZM19.3872 61.552H10.3872V70.552H19.3872V61.552ZM27.0672 61.552V70.552H36.0672V61.552H27.0672ZM27.0672 44.08V35.08H18.0672V44.08H27.0672ZM35.8992 44.08V53.08H44.8992V44.08H35.8992ZM35.8992 18.16V9.16H26.8992V18.16H35.8992ZM45.4993 18.16H54.4993V9.16H45.4993V18.16ZM45.4993 44.08H36.4993V53.08H45.4993V44.08ZM54.3313 44.08H63.3313V35.08H54.3313V44.08ZM54.3313 61.552H45.3313V70.552H54.3313V61.552ZM62.1072 61.552V70.552H71.1072V61.552H62.1072ZM62.1072 9.424V0.423996H53.1072V9.424H62.1072ZM71.7072 9.424H80.7072V0.423996H71.7072V9.424ZM71.7072 62.512V71.512H80.7072V62.512H71.7072ZM63.0672 62.512V53.512H54.0672V62.512H63.0672ZM63.0672 71.152V80.152H72.0672V71.152H63.0672ZM53.3712 71.152H44.3712V80.152H53.3712V71.152ZM53.3712 62.512H62.3712V53.512H53.3712V62.512ZM44.5392 62.512H35.5392V71.512H44.5392V62.512ZM44.5392 45.04H53.5392V36.04H44.5392V45.04ZM36.8593 45.04V36.04H27.8593V45.04H36.8593ZM36.8593 62.512V71.512H45.8593V62.512H36.8593ZM28.0273 62.512V53.512H19.0273V62.512H28.0273ZM28.0273 71.152V80.152H37.0273V71.152H28.0273ZM27.4272 71.152V62.512H9.42725V71.152H27.4272ZM18.4272 53.512H9.69124V71.512H18.4272V53.512ZM18.6912 62.512V9.424H0.691238V62.512H18.6912ZM9.69124 18.424H19.3872V0.423996H9.69124V18.424ZM10.3872 9.424V61.552H28.3872V9.424H10.3872ZM19.3872 70.552H27.0672V52.552H19.3872V70.552ZM36.0672 61.552V44.08H18.0672V61.552H36.0672ZM27.0672 53.08H35.8992V35.08H27.0672V53.08ZM44.8992 44.08V18.16H26.8992V44.08H44.8992ZM35.8992 27.16H45.4993V9.16H35.8992V27.16ZM36.4993 18.16V44.08H54.4993V18.16H36.4993ZM45.4993 53.08H54.3313V35.08H45.4993V53.08ZM45.3313 44.08V61.552H63.3313V44.08H45.3313ZM54.3313 70.552H62.1072V52.552H54.3313V70.552ZM71.1072 61.552V9.424H53.1072V61.552H71.1072ZM62.1072 18.424H71.7072V0.423996H62.1072V18.424ZM62.7072 9.424V62.512H80.7072V9.424H62.7072ZM71.7072 53.512H63.0672V71.512H71.7072V53.512ZM54.0672 62.512V71.152H72.0672V62.512H54.0672ZM63.0672 62.152H53.3712V80.152H63.0672V62.152ZM62.3712 71.152V62.512H44.3712V71.152H62.3712ZM53.3712 53.512H44.5392V71.512H53.3712V53.512ZM53.5392 62.512V45.04H35.5392V62.512H53.5392ZM44.5392 36.04H36.8593V54.04H44.5392V36.04ZM27.8593 45.04V62.512H45.8593V45.04H27.8593ZM36.8593 53.512H28.0273V71.512H36.8593V53.512ZM19.0273 62.512V71.152H37.0273V62.512H19.0273ZM28.0273 62.152H18.4272V80.152H28.0273V62.152ZM102.555 71.152H93.5547V80.152H102.555V71.152ZM102.555 62.512H111.555V53.512H102.555V62.512ZM93.8187 62.512H84.8187V71.512H93.8187V62.512ZM93.8187 35.536V26.536H84.8187V35.536H93.8187ZM102.555 35.536V44.536H111.555V35.536H102.555ZM102.555 26.8V17.8H93.5547V26.8H102.555ZM129.627 26.8H138.627V17.8H129.627V26.8ZM129.627 35.536H120.627V44.536H129.627V35.536ZM138.459 35.536H147.459V26.536H138.459V35.536ZM138.459 45.04V54.04H147.459V45.04H138.459ZM128.667 45.04H119.667V54.04H128.667V45.04ZM128.667 36.4H137.667V27.4H128.667V36.4ZM103.515 36.4V27.4H94.5147V36.4H103.515ZM103.515 44.08H94.5147V53.08H103.515V44.08ZM120.987 44.08H129.987V35.08H120.987V44.08ZM120.987 53.776V62.776H129.987V53.776H120.987ZM103.515 53.776V44.776H94.5147V53.776H103.515ZM103.515 61.552H94.5147V70.552H103.515V61.552ZM128.667 61.552V70.552H137.667V61.552H128.667ZM128.667 52.72V43.72H119.667V52.72H128.667ZM138.459 52.72H147.459V43.72H138.459V52.72ZM138.459 62.416V71.416H147.459V62.416H138.459ZM129.627 62.416V53.416H120.627V62.416H129.627ZM129.627 71.152V80.152H138.627V71.152H129.627ZM111.555 71.152V62.512H93.5547V71.152H111.555ZM102.555 53.512H93.8187V71.512H102.555V53.512ZM102.819 62.512V35.536H84.8187V62.512H102.819ZM93.8187 44.536H102.555V26.536H93.8187V44.536ZM111.555 35.536V26.8H93.5547V35.536H111.555ZM102.555 35.8H129.627V17.8H102.555V35.8ZM120.627 26.8V35.536H138.627V26.8H120.627ZM129.627 44.536H138.459V26.536H129.627V44.536ZM129.459 35.536V45.04H147.459V35.536H129.459ZM138.459 36.04H128.667V54.04H138.459V36.04ZM137.667 45.04V36.4H119.667V45.04H137.667ZM128.667 27.4H103.515V45.4H128.667V27.4ZM94.5147 36.4V44.08H112.515V36.4H94.5147ZM103.515 53.08H120.987V35.08H103.515V53.08ZM111.987 44.08V53.776H129.987V44.08H111.987ZM120.987 44.776H103.515V62.776H120.987V44.776ZM94.5147 53.776V61.552H112.515V53.776H94.5147ZM103.515 70.552H128.667V52.552H103.515V70.552ZM137.667 61.552V52.72H119.667V61.552H137.667ZM128.667 61.72H138.459V43.72H128.667V61.72ZM129.459 52.72V62.416H147.459V52.72H129.459ZM138.459 53.416H129.627V71.416H138.459V53.416ZM120.627 62.416V71.152H138.627V62.416H120.627ZM129.627 62.152H102.555V80.152H129.627V62.152ZM172.245 71.152H163.245V80.152H172.245V71.152ZM172.245 62.512H181.245V53.512H172.245V62.512ZM163.509 62.512H154.509V71.512H163.509V62.512ZM163.509 9.424V0.423996H154.509V9.424H163.509ZM173.205 9.424H182.205V0.423996H173.205V9.424ZM173.205 26.8H164.205V35.8H173.205V26.8ZM199.317 26.8H208.317V17.8H199.317V26.8ZM199.317 35.536H190.317V44.536H199.317V35.536ZM208.149 35.536H217.149V26.536H208.149V35.536ZM208.149 62.512V71.512H217.149V62.512H208.149ZM199.317 62.512V53.512H190.317V62.512H199.317ZM199.317 71.152V80.152H208.317V71.152H199.317ZM173.205 61.552H164.205V70.552H173.205V61.552ZM198.357 61.552V70.552H207.357V61.552H198.357ZM198.357 36.4H207.357V27.4H198.357V36.4ZM173.205 36.4V27.4H164.205V36.4H173.205ZM181.245 71.152V62.512H163.245V71.152H181.245ZM172.245 53.512H163.509V71.512H172.245V53.512ZM172.509 62.512V9.424H154.509V62.512H172.509ZM163.509 18.424H173.205V0.423996H163.509V18.424ZM164.205 9.424V26.8H182.205V9.424H164.205ZM173.205 35.8H199.317V17.8H173.205V35.8ZM190.317 26.8V35.536H208.317V26.8H190.317ZM199.317 44.536H208.149V26.536H199.317V44.536ZM199.149 35.536V62.512H217.149V35.536H199.149ZM208.149 53.512H199.317V71.512H208.149V53.512ZM190.317 62.512V71.152H208.317V62.512H190.317ZM199.317 62.152H172.245V80.152H199.317V62.152ZM173.205 70.552H198.357V52.552H173.205V70.552ZM207.357 61.552V36.4H189.357V61.552H207.357ZM198.357 27.4H173.205V45.4H198.357V27.4ZM164.205 36.4V61.552H182.205V36.4H164.205ZM233.199 71.152H224.199V80.152H233.199V71.152ZM233.199 9.424V0.423996H224.199V9.424H233.199ZM260.367 9.424H269.367V0.423996H260.367V9.424ZM260.367 18.16H251.367V27.16H260.367V18.16ZM269.007 18.16H278.007V9.16H269.007V18.16ZM269.007 26.8H260.007V35.8H269.007V26.8ZM277.839 26.8H286.839V17.8H277.839V26.8ZM277.839 53.776V62.776H286.839V53.776H277.839ZM269.007 53.776V44.776H260.007V53.776H269.007ZM269.007 62.512V71.512H278.007V62.512H269.007ZM260.367 62.512V53.512H251.367V62.512H260.367ZM260.367 71.152V80.152H269.367V71.152H260.367ZM242.895 61.552H233.895V70.552H242.895V61.552ZM259.407 61.552V70.552H268.407V61.552H259.407ZM259.407 52.816V43.816H250.407V52.816H259.407ZM268.047 52.816V61.816H277.047V52.816H268.047ZM268.047 27.76H277.047V18.76H268.047V27.76ZM259.407 27.76H250.407V36.76H259.407V27.76ZM259.407 19.12H268.407V10.12H259.407V19.12ZM242.895 19.12V10.12H233.895V19.12H242.895ZM242.199 71.152V9.424H224.199V71.152H242.199ZM233.199 18.424H260.367V0.423996H233.199V18.424ZM251.367 9.424V18.16H269.367V9.424H251.367ZM260.367 27.16H269.007V9.16H260.367V27.16ZM260.007 18.16V26.8H278.007V18.16H260.007ZM269.007 35.8H277.839V17.8H269.007V35.8ZM268.839 26.8V53.776H286.839V26.8H268.839ZM277.839 44.776H269.007V62.776H277.839V44.776ZM260.007 53.776V62.512H278.007V53.776H260.007ZM269.007 53.512H260.367V71.512H269.007V53.512ZM251.367 62.512V71.152H269.367V62.512H251.367ZM260.367 62.152H233.199V80.152H260.367V62.152ZM242.895 70.552H259.407V52.552H242.895V70.552ZM268.407 61.552V52.816H250.407V61.552H268.407ZM259.407 61.816H268.047V43.816H259.407V61.816ZM277.047 52.816V27.76H259.047V52.816H277.047ZM268.047 18.76H259.407V36.76H268.047V18.76ZM268.407 27.76V19.12H250.407V27.76H268.407ZM259.407 10.12H242.895V28.12H259.407V10.12ZM233.895 19.12V61.552H251.895V19.12H233.895ZM311.625 71.152H302.625V80.152H311.625V71.152ZM311.625 62.512H320.625V53.512H311.625V62.512ZM302.889 62.512H293.889V71.512H302.889V62.512ZM302.889 35.536V26.536H293.889V35.536H302.889ZM311.625 35.536V44.536H320.625V35.536H311.625ZM311.625 26.8V17.8H302.625V26.8H311.625ZM338.697 26.8H347.697V17.8H338.697V26.8ZM338.697 35.536H329.697V44.536H338.697V35.536ZM347.529 35.536H356.529V26.536H347.529V35.536ZM347.529 45.04V54.04H356.529V45.04H347.529ZM337.737 45.04H328.737V54.04H337.737V45.04ZM337.737 36.4H346.737V27.4H337.737V36.4ZM312.585 36.4V27.4H303.585V36.4H312.585ZM312.585 44.08H303.585V53.08H312.585V44.08ZM330.057 44.08H339.057V35.08H330.057V44.08ZM330.057 53.776V62.776H339.057V53.776H330.057ZM312.585 53.776V44.776H303.585V53.776H312.585ZM312.585 61.552H303.585V70.552H312.585V61.552ZM337.737 61.552V70.552H346.737V61.552H337.737ZM337.737 52.72V43.72H328.737V52.72H337.737ZM347.529 52.72H356.529V43.72H347.529V52.72ZM347.529 62.416V71.416H356.529V62.416H347.529ZM338.697 62.416V53.416H329.697V62.416H338.697ZM338.697 71.152V80.152H347.697V71.152H338.697ZM320.625 71.152V62.512H302.625V71.152H320.625ZM311.625 53.512H302.889V71.512H311.625V53.512ZM311.889 62.512V35.536H293.889V62.512H311.889ZM302.889 44.536H311.625V26.536H302.889V44.536ZM320.625 35.536V26.8H302.625V35.536H320.625ZM311.625 35.8H338.697V17.8H311.625V35.8ZM329.697 26.8V35.536H347.697V26.8H329.697ZM338.697 44.536H347.529V26.536H338.697V44.536ZM338.529 35.536V45.04H356.529V35.536H338.529ZM347.529 36.04H337.737V54.04H347.529V36.04ZM346.737 45.04V36.4H328.737V45.04H346.737ZM337.737 27.4H312.585V45.4H337.737V27.4ZM303.585 36.4V44.08H321.585V36.4H303.585ZM312.585 53.08H330.057V35.08H312.585V53.08ZM321.057 44.08V53.776H339.057V44.08H321.057ZM330.057 44.776H312.585V62.776H330.057V44.776ZM303.585 53.776V61.552H321.585V53.776H303.585ZM312.585 70.552H337.737V52.552H312.585V70.552ZM346.737 61.552V52.72H328.737V61.552H346.737ZM337.737 61.72H347.529V43.72H337.737V61.72ZM338.529 52.72V62.416H356.529V52.72H338.529ZM347.529 53.416H338.697V71.416H347.529V53.416ZM329.697 62.416V71.152H347.697V62.416H329.697ZM338.697 62.152H311.625V80.152H338.697V62.152ZM372.579 71.152H363.579V80.152H372.579V71.152ZM372.579 61.552V52.552H363.579V61.552H372.579ZM381.315 61.552V70.552H390.315V61.552H381.315ZM381.315 52.816V43.816H372.315V52.816H381.315ZM389.955 52.816V61.816H398.955V52.816H389.955ZM389.955 45.04H398.955V36.04H389.955V45.04ZM381.315 45.04H372.315V54.04H381.315V45.04ZM381.315 36.4H390.315V27.4H381.315V36.4ZM372.579 36.4H363.579V45.4H372.579V36.4ZM372.579 26.8V17.8H363.579V26.8H372.579ZM382.275 26.8H391.275V17.8H382.275V26.8ZM382.275 35.536H373.275V44.536H382.275V35.536ZM390.915 35.536H399.915V26.536H390.915V35.536ZM390.915 44.08H381.915V53.08H390.915V44.08ZM398.787 44.08V53.08H407.787V44.08H398.787ZM398.787 35.536V26.536H389.787V35.536H398.787ZM407.427 35.536V44.536H416.427V35.536H407.427ZM407.427 26.8V17.8H398.427V26.8H407.427ZM417.219 26.8H426.219V17.8H417.219V26.8ZM417.219 36.4V45.4H426.219V36.4H417.219ZM408.387 36.4V27.4H399.387V36.4H408.387ZM408.387 45.04V54.04H417.387V45.04H408.387ZM399.747 45.04V36.04H390.747V45.04H399.747ZM399.747 52.816H390.747V61.816H399.747V52.816ZM408.387 52.816H417.387V43.816H408.387V52.816ZM408.387 61.552H399.387V70.552H408.387V61.552ZM417.219 61.552H426.219V52.552H417.219V61.552ZM417.219 71.152V80.152H426.219V71.152H417.219ZM407.427 71.152H398.427V80.152H407.427V71.152ZM407.427 62.512H416.427V53.512H407.427V62.512ZM398.787 62.512H389.787V71.512H398.787V62.512ZM398.787 53.776H407.787V44.776H398.787V53.776ZM390.915 53.776V44.776H381.915V53.776H390.915ZM390.915 62.512V71.512H399.915V62.512H390.915ZM382.275 62.512V53.512H373.275V62.512H382.275ZM382.275 71.152V80.152H391.275V71.152H382.275ZM381.579 71.152V61.552H363.579V71.152H381.579ZM372.579 70.552H381.315V52.552H372.579V70.552ZM390.315 61.552V52.816H372.315V61.552H390.315ZM381.315 61.816H389.955V43.816H381.315V61.816ZM398.955 52.816V45.04H380.955V52.816H398.955ZM389.955 36.04H381.315V54.04H389.955V36.04ZM390.315 45.04V36.4H372.315V45.04H390.315ZM381.315 27.4H372.579V45.4H381.315V27.4ZM381.579 36.4V26.8H363.579V36.4H381.579ZM372.579 35.8H382.275V17.8H372.579V35.8ZM373.275 26.8V35.536H391.275V26.8H373.275ZM382.275 44.536H390.915V26.536H382.275V44.536ZM381.915 35.536V44.08H399.915V35.536H381.915ZM390.915 53.08H398.787V35.08H390.915V53.08ZM407.787 44.08V35.536H389.787V44.08H407.787ZM398.787 44.536H407.427V26.536H398.787V44.536ZM416.427 35.536V26.8H398.427V35.536H416.427ZM407.427 35.8H417.219V17.8H407.427V35.8ZM408.219 26.8V36.4H426.219V26.8H408.219ZM417.219 27.4H408.387V45.4H417.219V27.4ZM399.387 36.4V45.04H417.387V36.4H399.387ZM408.387 36.04H399.747V54.04H408.387V36.04ZM390.747 45.04V52.816H408.747V45.04H390.747ZM399.747 61.816H408.387V43.816H399.747V61.816ZM399.387 52.816V61.552H417.387V52.816H399.387ZM408.387 70.552H417.219V52.552H408.387V70.552ZM408.219 61.552V71.152H426.219V61.552H408.219ZM417.219 62.152H407.427V80.152H417.219V62.152ZM416.427 71.152V62.512H398.427V71.152H416.427ZM407.427 53.512H398.787V71.512H407.427V53.512ZM407.787 62.512V53.776H389.787V62.512H407.787ZM398.787 44.776H390.915V62.776H398.787V44.776ZM381.915 53.776V62.512H399.915V53.776H381.915ZM390.915 53.512H382.275V71.512H390.915V53.512ZM373.275 62.512V71.152H391.275V62.512H373.275ZM382.275 62.152H372.579V80.152H382.275V62.152Z" fill="#0004FF" mask="url(#path-1-outside-1_49_5)"/>
</svg>
